<?xml version="1.0" standalone="no"?>
<!DOCTYPE svg PUBLIC "-//W3C//DTD SVG 20010904//EN"
 "http://www.w3.org/TR/2001/REC-SVG-20010904/DTD/svg10.dtd">
<svg version="1.0" xmlns="http://www.w3.org/2000/svg"
 width="528.000000pt" height="422.000000pt" viewBox="0 0 528.000000 422.000000"
 preserveAspectRatio="xMidYMid meet">

<g transform="translate(0.000000,422.000000) scale(0.100000,-0.100000)"
fill="#000000" stroke="none">
<path d="M766 2955 l-464 -455 -58 0 -59 -1 45 -40 c25 -23 101 -96 170 -162
69 -67 179 -173 245 -237 66 -63 176 -169 244 -234 l122 -119 -28 -27 c-15
-15 -200 -192 -410 -394 l-382 -366 527 0 527 0 334 320 334 320 276 0 275 0
-120 115 c-65 63 -127 114 -136 115 -11 0 -18 8 -18 18 0 10 -141 156 -336
347 l-336 329 134 131 c73 72 286 280 473 463 l339 332 -617 0 -618 0 -463
-455z m857 -862 c216 -208 392 -381 392 -385 0 -5 -175 -177 -390 -383 l-390
-374 -485 0 -485 -1 60 58 c33 32 210 201 393 376 182 175 332 322 332 325 0
4 -171 170 -379 370 -209 199 -385 369 -392 377 -10 12 55 14 470 14 l482 0
392 -377z"/>
<path d="M2373 2300 c-33 -13 -55 -53 -47 -84 3 -15 27 -44 52 -64 79 -64 92
-80 92 -110 0 -66 -80 -85 -124 -30 -21 28 -26 30 -32 15 -14 -38 69 -87 117
-68 39 14 63 48 63 88 0 37 -1 38 -108 129 -37 32 -47 69 -24 92 19 19 73 14
93 -8 13 -14 22 -17 29 -10 27 27 -66 69 -111 50z"/>
<path d="M3970 2265 c0 -38 -3 -45 -20 -45 -11 0 -20 -7 -20 -15 0 -8 9 -15
20 -15 19 0 20 -7 20 -115 0 -96 3 -115 15 -115 12 0 15 19 15 115 0 108 1
115 20 115 11 0 20 7 20 15 0 8 -9 15 -20 15 -17 0 -20 7 -20 45 0 33 -4 45
-15 45 -11 0 -15 -12 -15 -45z"/>
<path d="M4090 2295 c-10 -12 -10 -19 -2 -27 15 -15 48 14 38 31 -10 15 -21
14 -36 -4z"/>
<path d="M2640 2209 c-38 -15 -68 -48 -81 -86 -9 -28 -8 -43 5 -78 24 -63 84
-93 155 -79 37 8 97 64 80 75 -7 4 -21 -4 -33 -18 -17 -19 -35 -27 -74 -31
-47 -4 -54 -2 -82 26 -16 17 -30 40 -30 51 0 20 5 21 121 21 133 0 131 -2 96
68 -21 43 -108 71 -157 51z m109 -34 c26 -13 47 -42 38 -52 -3 -2 -51 -2 -108
-1 l-104 3 32 33 c25 26 39 32 73 32 22 0 54 -7 69 -15z"/>
<path d="M2880 2090 c0 -109 2 -130 15 -130 12 0 15 17 15 90 0 83 2 93 25
115 28 29 76 33 99 9 12 -12 16 -38 16 -115 0 -81 3 -99 15 -99 12 0 15 17 15
90 0 83 2 93 25 115 28 29 76 33 99 9 12 -12 16 -38 16 -115 0 -81 3 -99 15
-99 12 0 15 16 14 83 0 45 -5 98 -12 117 -21 62 -90 75 -137 25 l-22 -24 -23
27 c-30 35 -99 36 -127 2 l-18 -22 0 26 c0 16 -5 26 -15 26 -13 0 -15 -21 -15
-130z"/>
<path d="M3395 2206 c-113 -50 -103 -204 16 -236 47 -13 113 2 128 28 9 14 10
13 11 -10 0 -18 5 -28 15 -28 13 0 15 21 15 130 0 109 -2 130 -15 130 -9 0
-15 -9 -15 -25 0 -26 0 -26 -21 -7 -18 18 -63 33 -93 32 -6 -1 -24 -7 -41 -14z
m126 -45 c23 -23 29 -38 29 -71 0 -61 -41 -100 -105 -100 -64 0 -105 39 -105
100 0 61 41 100 105 100 38 0 52 -5 76 -29z"/>
<path d="M3660 2090 c0 -109 2 -130 15 -130 12 0 15 16 15 81 0 111 22 148 91
149 53 0 59 -12 59 -127 0 -89 2 -103 16 -103 15 0 16 12 12 99 -5 110 -19
144 -63 155 -33 8 -91 -10 -105 -32 -8 -14 -9 -12 -10 11 0 17 -5 27 -15 27
-13 0 -15 -21 -15 -130z"/>
<path d="M4090 2090 c0 -109 2 -130 15 -130 13 0 15 21 15 130 0 109 -2 130
-15 130 -13 0 -15 -21 -15 -130z"/>
<path d="M4266 2210 c-39 -12 -73 -46 -87 -87 -16 -49 11 -117 54 -140 47 -25
127 -21 167 7 l32 23 -26 14 c-19 10 -31 11 -45 3 -33 -17 -89 -12 -111 10
-47 47 -11 120 59 120 22 0 46 -6 54 -14 12 -13 17 -13 36 0 31 22 26 33 -21
54 -47 21 -67 23 -112 10z"/>
<path d="M4518 2205 c-52 -29 -45 -87 16 -125 46 -28 49 -60 6 -60 -16 0 -33
7 -38 15 -7 14 -11 13 -28 -6 -19 -21 -19 -21 5 -40 48 -39 105 -33 137 16 22
33 6 72 -41 103 -19 12 -35 29 -35 37 0 20 46 20 58 0 7 -13 11 -11 22 10 12
22 12 28 -1 40 -22 22 -70 27 -101 10z"/>
<path d="M4728 2205 c-52 -29 -45 -87 16 -125 46 -28 49 -60 6 -60 -16 0 -33
7 -38 15 -7 14 -11 13 -28 -6 -19 -21 -19 -21 5 -40 48 -39 105 -33 137 16 22
33 6 72 -41 103 -19 12 -35 29 -35 37 0 20 46 20 58 0 7 -13 11 -11 22 10 12
22 12 28 -1 40 -22 22 -70 27 -101 10z"/>
</g>
</svg>
